<svg width="1000" height="736" viewBox="0 0 1000 736" fill="none" xmlns="http://www.w3.org/2000/svg">
<g opacity="0.99">
<path d="M761.173 284.675L761.11 558.262C761.109 562.293 760.387 566.175 759.099 569.753C754.41 582.793 741.892 592.109 727.26 592.109L252.106 592.008C237.403 592.01 224.875 582.568 220.251 569.449C218.985 565.909 218.32 562.113 218.301 558.149L218.363 284.677C218.366 276.759 221.08 271.985 225.619 266.225C230.995 259.402 418.668 263.954 469.827 261.785C477.584 261.456 486.515 261.451 494.305 261.776C545.618 263.913 747.63 256.466 753.022 262.748C758.078 268.639 761.143 276.294 761.173 284.675ZM761.173 284.675L761.11 558.262C761.109 562.293 760.387 566.175 759.099 569.753C754.41 582.793 741.892 592.109 727.26 592.109L252.106 592.008C237.403 592.01 224.875 582.568 220.251 569.449C218.985 565.909 218.32 562.113 218.301 558.149L218.363 284.677C218.366 276.759 221.08 271.985 225.619 266.225C230.995 259.402 418.668 263.954 469.827 261.785C477.584 261.456 486.515 261.451 494.305 261.776C545.618 263.913 747.63 256.466 753.022 262.748C758.078 268.639 761.143 276.294 761.173 284.675Z" fill="#0D6020" fill-opacity="0.2"/>
<path d="M770.133 277.395L770.07 550.982C770.069 555.013 769.347 558.895 768.059 562.473C763.37 575.513 750.853 584.829 736.22 584.829L261.067 584.728C246.363 584.73 233.835 575.288 229.211 562.169C227.945 558.629 227.28 554.833 227.261 550.869L227.323 277.397C227.326 269.479 230.04 264.705 234.579 258.945C239.955 252.122 434.624 110.229 485.785 72.9869C493.54 67.3402 502.474 67.301 510.265 72.8701C561.576 109.564 756.591 249.186 761.982 255.468C767.038 261.359 770.103 269.014 770.133 277.395ZM770.133 277.395L770.07 550.982C770.069 555.013 769.347 558.895 768.059 562.473C763.37 575.513 750.853 584.829 736.22 584.829L261.067 584.728C246.363 584.73 233.835 575.288 229.211 562.169C227.945 558.629 227.28 554.833 227.261 550.869L227.323 277.397C227.326 269.479 230.04 264.705 234.579 258.945C239.955 252.122 434.624 110.229 485.785 72.9869C493.54 67.3402 502.474 67.301 510.265 72.8701C561.576 109.564 756.591 249.186 761.982 255.468C767.038 261.359 770.103 269.014 770.133 277.395Z" fill="white"/>
<path d="M746.349 155.843L746.525 433.953C746.533 446.812 736.112 457.24 723.253 457.249L276.837 457.859C263.978 457.868 253.545 447.448 253.537 434.589L253.361 156.482C253.352 143.623 263.775 133.192 276.634 133.183L723.052 132.574C735.911 132.565 746.341 142.984 746.349 155.843ZM746.349 155.843L746.525 433.953C746.533 446.812 736.112 457.24 723.253 457.249L276.837 457.859C263.978 457.868 253.545 447.448 253.537 434.589L253.361 156.482C253.352 143.623 263.775 133.192 276.634 133.183L723.052 132.574C735.911 132.565 746.341 142.984 746.349 155.843Z" fill="#0D6020"/>
<path d="M323.635 229.181C323.635 229.181 515.042 229.162 610.78 229.151M323.633 176.805L482.997 177.045" stroke="#AAAAAA" stroke-width="16.632" stroke-linecap="round" stroke-linejoin="round"/>
<path d="M770.132 279.896L770.07 550.982C770.069 555.012 769.347 558.895 768.059 562.473C763.37 575.513 750.853 584.829 736.22 584.828L261.067 584.728C246.364 584.73 233.835 575.288 229.211 562.169C227.945 558.629 227.28 554.833 227.261 550.869L227.325 279.899C227.335 261.186 242.499 255.095 261.138 266.551L495.997 414.601L736.291 266.652C753.999 256.096 770.06 261.22 770.132 279.896ZM770.132 279.896L770.07 550.982C770.069 555.012 769.347 558.895 768.059 562.473C763.37 575.513 750.853 584.829 736.22 584.828L261.067 584.728C246.364 584.73 233.835 575.288 229.211 562.169C227.945 558.629 227.28 554.833 227.261 550.869L227.325 279.899C227.335 261.186 242.499 255.095 261.138 266.551L495.997 414.601L736.291 266.652C753.999 256.096 770.06 261.22 770.132 279.896ZM768.06 561.888C763.373 575.27 750.853 584.829 736.22 584.828L261.068 584.724C246.365 584.726 233.833 575.036 229.211 561.577L478.374 394.584C478.374 394.584 489.884 387.093 499.316 387.202C508.748 387.311 518.772 395.073 518.772 395.073L768.06 561.888ZM768.06 561.888C763.373 575.27 750.853 584.829 736.22 584.828L261.068 584.724C246.365 584.726 233.833 575.036 229.211 561.577L478.374 394.584C478.374 394.584 489.884 387.093 499.316 387.202C508.748 387.311 518.772 395.073 518.772 395.073L768.06 561.888ZM768.059 562.473C763.37 575.513 750.853 584.829 736.22 584.828L261.067 584.728C246.364 584.73 233.835 575.288 229.211 562.169L478.373 399.43C478.373 399.43 489.882 392.13 499.316 392.236C508.749 392.342 518.775 399.907 518.775 399.907L768.059 562.473ZM768.059 562.473C763.37 575.513 750.853 584.829 736.22 584.828L261.067 584.728C246.364 584.73 233.835 575.288 229.211 562.169L478.373 399.43C478.373 399.43 489.882 392.13 499.316 392.236C508.749 392.342 518.775 399.907 518.775 399.907L768.059 562.473ZM245.266 254.904C245.26 254.91 245.24 254.931 245.225 254.944C245.225 254.944 245.222 254.954 245.225 254.958C245.226 254.965 245.225 254.968 245.225 254.968L245.309 254.967C245.309 254.967 245.312 254.968 245.312 254.957C245.313 254.954 245.312 254.947 245.312 254.947C245.299 254.932 245.272 254.906 245.266 254.904ZM245.266 254.904C245.26 254.91 245.24 254.931 245.225 254.944C245.225 254.944 245.222 254.954 245.225 254.958C245.226 254.965 245.225 254.968 245.225 254.968L245.309 254.967C245.309 254.967 245.312 254.968 245.312 254.957C245.313 254.954 245.312 254.947 245.312 254.947C245.299 254.932 245.272 254.906 245.266 254.904Z" fill="white"/>
<path d="M768.06 561.888C763.373 575.27 750.853 584.829 736.22 584.829L261.068 584.724C246.365 584.726 233.834 575.036 229.211 561.577L478.374 394.584C478.374 394.584 489.884 387.093 499.316 387.202C508.748 387.311 518.772 395.073 518.772 395.073L768.06 561.888ZM768.06 561.888C763.373 575.27 750.853 584.829 736.22 584.829L261.068 584.724C246.365 584.726 233.834 575.036 229.211 561.577L478.374 394.584C478.374 394.584 489.884 387.093 499.316 387.202C508.748 387.311 518.772 395.073 518.772 395.073L768.06 561.888ZM768.059 562.473C763.37 575.513 750.853 584.829 736.22 584.829L261.068 584.724C246.365 584.726 233.835 575.288 229.211 562.169L478.373 399.43C478.373 399.43 489.882 392.131 499.316 392.236C508.749 392.342 518.775 399.907 518.775 399.907L768.059 562.473ZM768.059 562.473C763.37 575.513 750.853 584.829 736.22 584.829L261.068 584.724C246.365 584.726 233.835 575.288 229.211 562.169L478.373 399.43C478.373 399.43 489.882 392.131 499.316 392.236C508.749 392.342 518.775 399.907 518.775 399.907L768.059 562.473ZM245.266 254.904C245.26 254.91 245.24 254.931 245.225 254.944C245.225 254.944 245.222 254.954 245.225 254.958C245.226 254.965 245.225 254.968 245.225 254.968L245.309 254.967C245.309 254.967 245.312 254.968 245.312 254.957C245.313 254.954 245.312 254.947 245.312 254.947C245.299 254.932 245.272 254.906 245.266 254.904ZM245.266 254.904C245.26 254.91 245.24 254.931 245.225 254.944C245.225 254.944 245.222 254.954 245.225 254.958C245.226 254.965 245.225 254.968 245.225 254.968L245.309 254.967C245.309 254.967 245.312 254.968 245.312 254.957C245.313 254.954 245.312 254.947 245.312 254.947C245.299 254.932 245.272 254.906 245.266 254.904Z" fill="#212121" fill-opacity="0.3"/>
<path d="M768.059 562.473C763.37 575.513 750.853 584.829 736.22 584.829L261.067 584.728C246.364 584.73 233.835 575.288 229.211 562.169L478.373 399.43C478.373 399.43 489.882 392.131 499.316 392.236C508.749 392.342 518.775 399.907 518.775 399.907L768.059 562.473ZM768.059 562.473C763.37 575.513 750.853 584.829 736.22 584.829L261.067 584.728C246.364 584.73 233.835 575.288 229.211 562.169L478.373 399.43C478.373 399.43 489.882 392.131 499.316 392.236C508.749 392.342 518.775 399.907 518.775 399.907L768.059 562.473ZM245.266 254.904C245.26 254.91 245.24 254.931 245.225 254.944C245.225 254.944 245.222 254.954 245.225 254.958C245.226 254.965 245.225 254.968 245.225 254.968L245.309 254.967C245.309 254.967 245.312 254.968 245.312 254.957C245.313 254.954 245.312 254.947 245.312 254.947C245.299 254.932 245.272 254.906 245.266 254.904ZM245.266 254.904C245.26 254.91 245.24 254.931 245.225 254.944C245.225 254.944 245.222 254.954 245.225 254.958C245.226 254.965 245.225 254.968 245.225 254.968L245.309 254.967C245.309 254.967 245.312 254.968 245.312 254.957C245.313 254.954 245.312 254.947 245.312 254.947C245.299 254.932 245.272 254.906 245.266 254.904Z" fill="white"/>
</g>
<path d="M262.841 317.031C285.708 311.776 308.541 326.075 313.796 348.942C319.051 371.809 304.752 394.642 281.885 399.897C259.018 405.152 236.185 390.853 230.93 367.986C225.675 345.119 239.974 322.286 262.841 317.031Z" fill="#0D6020" fill-opacity="0.18"/>
<path d="M263.802 309.248C286.669 303.993 309.502 318.292 314.757 341.159C320.012 364.026 305.713 386.859 282.846 392.114C259.979 397.369 237.146 383.07 231.891 360.203C226.636 337.336 240.935 314.503 263.802 309.248ZM290.188 370.406C287.125 373.034 282.645 375.072 278.206 376.092C265.237 379.073 254.022 372.944 250.682 358.408C246.861 341.782 256.125 328.656 269.443 325.596C282.935 322.495 292.266 329.606 294.866 340.922C297.167 350.932 293.576 356.847 289.804 357.573C287.347 358.046 286.198 355.836 285.888 350.5L284.799 333.797C282.342 333.079 277.77 333.121 273.94 334.001C261.406 336.882 255.792 348.344 258.232 358.964C259.872 366.101 264.924 369.339 270.582 368.039C275.195 366.978 278.592 363.816 280.271 358.756L280.444 358.716C281.94 363.229 285.379 364.638 289.471 363.698C298.871 361.537 304.169 351.889 301.248 339.181C297.887 324.557 284.499 316.545 269.18 320.066C249.508 324.587 240.166 342.954 244.247 360.711C248.167 377.772 263.257 385.21 277.705 381.889C283.886 380.469 288.232 378.645 292.914 375.095L290.188 370.406ZM277.587 349.475C277.964 354.704 275.51 359.575 272.289 360.315C269.417 360.975 267.457 359.226 266.697 355.918C265.157 349.216 268.383 342.518 274.128 341.198C275.259 340.938 276.169 340.911 276.905 340.926L277.587 349.475Z" fill="#850037"/>
<path d="M290.188 370.406C287.125 373.034 282.645 375.072 278.206 376.092C265.237 379.073 254.023 372.944 250.682 358.408C246.861 341.782 256.125 328.657 269.443 325.596C282.935 322.495 292.266 329.606 294.866 340.922C297.167 350.932 293.576 356.847 289.804 357.573C287.347 358.046 286.198 355.836 285.888 350.5L284.799 333.797C282.342 333.079 277.77 333.121 273.94 334.001C261.406 336.882 255.792 348.344 258.232 358.964C259.873 366.101 264.924 369.339 270.582 368.039C275.196 366.978 278.592 363.816 280.271 358.756L280.444 358.716C281.94 363.229 285.379 364.638 289.471 363.698C298.871 361.537 304.169 351.889 301.248 339.181C297.887 324.557 284.499 316.545 269.18 320.066C249.508 324.587 240.166 342.954 244.247 360.711C248.167 377.773 263.257 385.21 277.705 381.89C283.886 380.469 288.232 378.645 292.915 375.095L290.188 370.406ZM277.587 349.475C277.964 354.704 275.51 359.575 272.289 360.315C269.418 360.975 267.457 359.226 266.697 355.918C265.157 349.216 268.383 342.518 274.128 341.198C275.259 340.938 276.169 340.912 276.905 340.926L277.587 349.475Z" fill="white"/>
<path d="M751.742 463.281V537.901C751.742 542.426 748.068 546.101 743.542 546.101H540.592C536.067 546.101 532.392 542.426 532.392 537.901V463.281C532.392 458.755 536.067 455.081 540.592 455.081H743.542C748.068 455.081 751.742 458.755 751.742 463.281ZM751.742 463.281V537.901C751.742 542.426 748.068 546.101 743.542 546.101H540.592C536.067 546.101 532.392 542.426 532.392 537.901V463.281C532.392 458.755 536.067 455.081 540.592 455.081H743.542C748.068 455.081 751.742 458.755 751.742 463.281ZM756.662 458.361V532.981C756.662 537.506 752.988 541.181 748.462 541.181H545.512C540.987 541.181 537.312 537.506 537.312 532.981V458.361C537.312 453.835 540.987 450.161 545.512 450.161H748.462C752.988 450.161 756.662 453.835 756.662 458.361ZM756.662 458.361V532.981C756.662 537.506 752.988 541.181 748.462 541.181H545.512C540.987 541.181 537.312 537.506 537.312 532.981V458.361C537.312 453.835 540.987 450.161 545.512 450.161H748.462C752.988 450.161 756.662 453.835 756.662 458.361ZM586.307 457.336C607.464 457.336 624.642 474.514 624.642 495.671C624.642 516.828 607.464 534.006 586.307 534.006C565.15 534.006 547.972 516.828 547.972 495.671C547.972 474.514 565.15 457.336 586.307 457.336ZM586.307 457.336C607.464 457.336 624.642 474.514 624.642 495.671C624.642 516.828 607.464 534.006 586.307 534.006C565.15 534.006 547.972 516.828 547.972 495.671C547.972 474.514 565.15 457.336 586.307 457.336ZM586.307 469.431C595.025 469.431 602.092 476.498 602.092 485.216C602.092 492.404 597.288 501.676 590.715 504.708C590.033 505.023 610.087 506.843 610.96 518.023C607.012 523.448 597.275 528.676 586.307 528.676C574.519 528.676 564.68 522.013 560.885 517.768C561.4 506.536 582.029 504.808 581.167 504.341C574.973 500.983 570.522 492.134 570.522 485.216C570.522 476.498 577.59 469.431 586.307 469.431ZM586.307 469.431C595.025 469.431 602.092 476.498 602.092 485.216C602.092 492.404 597.288 501.676 590.715 504.708C590.033 505.023 610.087 506.843 610.96 518.023C607.012 523.448 597.275 528.676 586.307 528.676C574.519 528.676 564.68 522.013 560.885 517.768C561.4 506.536 582.029 504.808 581.167 504.341C574.973 500.983 570.522 492.134 570.522 485.216C570.522 476.498 577.59 469.431 586.307 469.431Z" fill="#0D6020" fill-opacity="0.17"/>
<path d="M756.662 458.361V532.981C756.662 537.506 752.988 541.181 748.462 541.181H545.512C540.986 541.181 537.312 537.506 537.312 532.981V458.361C537.312 453.835 540.986 450.161 545.512 450.161H748.462C752.988 450.161 756.662 453.835 756.662 458.361ZM756.662 458.361V532.981C756.662 537.506 752.988 541.181 748.462 541.181H545.512C540.986 541.181 537.312 537.506 537.312 532.981V458.361C537.312 453.835 540.986 450.161 545.512 450.161H748.462C752.988 450.161 756.662 453.835 756.662 458.361ZM586.307 457.336C607.464 457.336 624.642 474.514 624.642 495.671C624.642 516.828 607.464 534.006 586.307 534.006C565.15 534.006 547.972 516.828 547.972 495.671C547.972 474.514 565.15 457.336 586.307 457.336ZM586.307 457.336C607.464 457.336 624.642 474.514 624.642 495.671C624.642 516.828 607.464 534.006 586.307 534.006C565.15 534.006 547.972 516.828 547.972 495.671C547.972 474.514 565.15 457.336 586.307 457.336ZM586.307 469.431C595.024 469.431 602.092 476.498 602.092 485.216C602.092 492.404 597.288 501.676 590.715 504.708C590.033 505.023 610.087 506.843 610.96 518.023C607.012 523.448 597.275 528.676 586.307 528.676C574.519 528.676 564.68 522.013 560.885 517.768C561.4 506.536 582.029 504.808 581.167 504.341C574.973 500.983 570.522 492.134 570.522 485.216C570.522 476.498 577.59 469.431 586.307 469.431ZM586.307 469.431C595.024 469.431 602.092 476.498 602.092 485.216C602.092 492.404 597.288 501.676 590.715 504.708C590.033 505.023 610.087 506.843 610.96 518.023C607.012 523.448 597.275 528.676 586.307 528.676C574.519 528.676 564.68 522.013 560.885 517.768C561.4 506.536 582.029 504.808 581.167 504.341C574.973 500.983 570.522 492.134 570.522 485.216C570.522 476.498 577.59 469.431 586.307 469.431Z" fill="white"/>
<path d="M586.307 457.336C607.464 457.336 624.642 474.514 624.642 495.671C624.642 516.828 607.464 534.006 586.307 534.006C565.15 534.006 547.972 516.828 547.972 495.671C547.972 474.514 565.15 457.336 586.307 457.336ZM586.307 457.336C607.464 457.336 624.642 474.514 624.642 495.671C624.642 516.828 607.464 534.006 586.307 534.006C565.15 534.006 547.972 516.828 547.972 495.671C547.972 474.514 565.15 457.336 586.307 457.336ZM586.307 469.431C595.025 469.431 602.092 476.499 602.092 485.216C602.092 492.404 597.288 501.676 590.715 504.708C590.033 505.023 610.087 506.843 610.96 518.023C607.012 523.448 597.275 528.676 586.307 528.676C574.519 528.676 564.68 522.013 560.886 517.768C561.4 506.536 582.029 504.808 581.167 504.341C574.973 500.983 570.522 492.134 570.522 485.216C570.522 476.499 577.59 469.431 586.307 469.431ZM586.307 469.431C595.025 469.431 602.092 476.499 602.092 485.216C602.092 492.404 597.288 501.676 590.715 504.708C590.033 505.023 610.087 506.843 610.96 518.023C607.012 523.448 597.275 528.676 586.307 528.676C574.519 528.676 564.68 522.013 560.886 517.768C561.4 506.536 582.029 504.808 581.167 504.341C574.973 500.983 570.522 492.134 570.522 485.216C570.522 476.499 577.59 469.431 586.307 469.431Z" fill="#850037"/>
<path d="M586.307 469.431C595.024 469.431 602.092 476.498 602.092 485.216C602.092 492.404 597.288 501.676 590.714 504.708C590.033 505.023 610.087 506.843 610.96 518.023C607.012 523.448 597.274 528.676 586.307 528.676C574.519 528.676 564.679 522.013 560.885 517.768C561.399 506.536 582.029 504.808 581.167 504.341C574.973 500.983 570.522 492.134 570.522 485.216C570.522 476.498 577.589 469.431 586.307 469.431ZM586.307 469.431C595.024 469.431 602.092 476.498 602.092 485.216C602.092 492.404 597.288 501.676 590.714 504.708C590.033 505.023 610.087 506.843 610.96 518.023C607.012 523.448 597.274 528.676 586.307 528.676C574.519 528.676 564.679 522.013 560.885 517.768C561.399 506.536 582.029 504.808 581.167 504.341C574.973 500.983 570.522 492.134 570.522 485.216C570.522 476.498 577.589 469.431 586.307 469.431Z" fill="white"/>
<path d="M640.632 486.651H739.442M640.632 521.091H739.442M640.632 503.871H739.442" stroke="#0D6020" stroke-width="8.2" stroke-linecap="round" stroke-linejoin="round"/>
<path d="M640.632 469.021H688.192" stroke="white" stroke-width="8.2" stroke-linecap="round" stroke-linejoin="round"/>
<mask id="mask0_83_4" style="mask-type:alpha" maskUnits="userSpaceOnUse" x="226" y="234" width="545" height="148">
<g opacity="0.99">
<path d="M770.133 269.557L770.379 281.098L226.943 381.795L227.154 320.084C227.154 320.084 653.257 213.251 715.582 238.299C741.983 248.91 760.379 256.446 761.982 257.475C767.038 260.721 770.103 264.939 770.133 269.557Z" fill="white"/>
</g>
</mask>
<g mask="url(#mask0_83_4)">
<path d="M535.673 355.859L589.585 340.715L513.033 353.983L516.196 363.068L531.578 356.857L535.673 355.859ZM589.585 340.715L516.818 357.216L517.246 378.801L589.585 340.715ZM515.04 354.51L589.585 340.715L487.758 348.718L515.04 354.51Z" fill="#0D6020" fill-opacity="0.2"/>
<path d="M536.842 353.41L590.754 338.266L514.201 351.534L517.365 360.619L532.747 354.408L536.842 353.41ZM590.754 338.266L517.987 354.767L518.415 376.352L590.754 338.266ZM516.209 352.061L590.754 338.266L488.927 346.269L516.209 352.061Z" fill="white"/>
<path d="M590.754 338.266L517.987 354.767L518.415 376.352L590.754 338.266ZM516.209 352.061L590.754 338.266L488.927 346.269L516.209 352.061Z" fill="#363937"/>
</g>
</svg>
